<svg width="511" height="511" viewBox="0 0 511 511" fill="none" xmlns="http://www.w3.org/2000/svg">
<g clip-path="url(#clip0)">
<path d="M231.608 37.3898C235.717 27.8068 245.085 21.6117 255.499 21.6117V413.582L133.835 486.336C129.726 488.807 125.126 490.039 120.506 490.039C115.16 490.039 109.815 488.379 105.305 485.057C96.8482 478.924 92.891 468.409 95.1873 458.23L126.638 319.724L19.9849 226.209C12.1484 219.351 9.1698 208.517 12.3823 198.614C15.5793 188.711 24.3514 181.709 34.7181 180.769L175.825 167.954L231.608 37.3898Z" fill="#FFC107"/>
<path d="M114.396 500.663C108.774 500.663 103.215 498.921 98.4701 495.49C89.6317 489.104 85.5029 478.094 87.9084 467.45L120.782 322.663L9.29456 224.887C1.09944 217.714 -2.03123 206.407 1.33337 196.037C4.69797 185.689 13.8522 178.344 24.6906 177.342L172.226 163.95L230.524 27.4675C234.824 17.44 244.618 10.9642 255.499 10.9642C266.38 10.9642 276.174 17.44 280.474 27.4441L338.772 163.95L486.284 177.342C497.146 178.321 506.3 185.67 509.665 196.017C513.029 206.384 509.918 217.714 501.699 224.868L390.235 322.62L423.109 467.407C425.518 478.055 421.386 489.061 412.551 495.447C403.756 501.814 392.024 502.348 382.718 496.769L255.499 420.755L128.299 496.811C123.999 499.389 119.207 500.663 114.396 500.663ZM255.499 388.01C260.333 388.01 265.121 389.308 269.425 391.862L389.471 463.661L358.445 326.983C356.23 317.232 359.533 307.096 367.049 300.519L472.319 208.173L333.045 195.526C323.06 194.633 314.413 188.352 310.494 179.089L255.499 50.2907L200.457 179.108C196.562 188.329 187.918 194.61 177.91 195.506L38.6597 208.154L143.925 300.495C151.465 307.076 154.744 317.232 152.53 326.983L121.508 463.661L241.553 391.862C245.873 389.308 250.665 388.01 255.499 388.01ZM339.902 166.547V166.57C339.902 166.57 339.902 166.57 339.902 166.547Z" fill="black"/>
</g>
<defs>
<clipPath id="clip0">
<rect width="511" height="511" fill="white"/>
</clipPath>
</defs>
</svg>
